<svg xmlns="http://www.w3.org/2000/svg" xmlns:xlink="http://www.w3.org/1999/xlink" viewBox="0 0 280 280"><path d="M 258.514 151.772 C 271.719 139.608 280 122.176 280 102.805 C 280 66.041 250.197 36.238 213.434 36.238 C 196.725 36.238 181.467 42.407 169.779 52.574 C 162.034 22.346 134.61 0 101.967 0 C 63.306 0 31.966 31.34 31.966 70 C 31.966 89.728 40.14 107.537 53.271 120.262 C 22.136 132.079 0 162.172 0 197.45 C 0 243.042 36.959 280 82.551 280 C 114.724 280 142.578 261.582 156.199 234.727 C 167.806 254.231 189.089 267.306 213.434 267.306 C 250.197 267.306 280 237.503 280 200.739 C 280 181.368 271.719 163.937 258.514 151.772 Z" fill="rgba(255, 157, 101, 0.6)"></path></svg>